<svg width="149" height="131" viewBox="0 0 149 131" fill="none" xmlns="http://www.w3.org/2000/svg">
<g clip-path="url(#clip0_0_114)" filter="url(#filter0_d_0_114)">
<path d="M120.898 101.962C120.908 101.952 120.908 101.932 120.918 101.922C120.938 101.891 120.951 101.858 120.958 101.822C120.968 101.792 120.978 101.752 120.988 101.722C120.996 101.689 121 101.656 120.998 101.622C120.998 101.602 121.008 101.592 121.008 101.572C121.008 101.552 120.998 101.542 120.998 101.522C120.998 101.502 120.988 101.452 120.988 101.422C120.988 101.392 120.968 101.352 120.958 101.322C120.947 101.288 120.934 101.254 120.918 101.222C120.908 101.212 120.908 101.192 120.898 101.182L109.682 81.7572H132.104C132.226 81.7535 132.346 81.7227 132.454 81.6672C132.484 81.6472 132.504 81.6273 132.534 81.6073C132.615 81.5565 132.683 81.4881 132.734 81.4073C132.744 81.3873 132.764 81.3773 132.784 81.3573L144.14 61.6924C144.15 61.6824 144.15 61.6624 144.16 61.6524C144.179 61.6217 144.193 61.5879 144.2 61.5524C144.21 61.5224 144.22 61.4824 144.23 61.4524C144.238 61.4198 144.242 61.3861 144.24 61.3525C144.24 61.3325 144.25 61.3225 144.25 61.3025C144.25 61.2825 144.24 61.2725 144.24 61.2525C144.24 61.2325 144.23 61.1825 144.23 61.1525C144.23 61.1225 144.21 61.0825 144.2 61.0525C144.189 61.0182 144.176 60.9848 144.16 60.9526C144.15 60.9426 144.15 60.9226 144.14 60.9126L132.784 41.2476C132.767 41.2222 132.746 41.1988 132.724 41.1776C132.693 41.1328 132.656 41.0925 132.614 41.0577C132.572 41.0253 132.529 40.9953 132.484 40.9677C132.444 40.9417 132.4 40.9216 132.354 40.9077C132.303 40.8881 132.249 40.878 132.194 40.8777C132.164 40.8777 132.134 40.8577 132.104 40.8577H109.682L120.898 21.4327C120.908 21.4227 120.908 21.4027 120.918 21.3927C120.938 21.3621 120.951 21.3282 120.958 21.2927C120.968 21.2627 120.978 21.2227 120.988 21.1927C120.996 21.1601 121 21.1264 120.998 21.0928C120.998 21.0728 121.008 21.0628 121.008 21.0428C121.008 21.0228 120.998 21.0128 120.998 20.9928C120.998 20.9728 120.988 20.9228 120.988 20.8928C120.988 20.8628 120.968 20.8228 120.958 20.7928C120.947 20.7585 120.934 20.7251 120.918 20.6929C120.908 20.6829 120.908 20.6629 120.898 20.6529L109.552 0.987923C109.535 0.962536 109.515 0.939078 109.492 0.917941C109.462 0.875571 109.429 0.835474 109.392 0.797971C109.351 0.765656 109.307 0.735621 109.262 0.707995C109.222 0.682069 109.178 0.66188 109.132 0.64801C109.081 0.628435 109.027 0.618274 108.972 0.618018C108.942 0.618018 108.912 0.598022 108.882 0.598022H86.1805C86.1605 0.598022 86.1505 0.60802 86.1305 0.60802C86.1105 0.60802 86.0605 0.618018 86.0306 0.618018L85.9206 0.64801C85.8889 0.65707 85.8585 0.670531 85.8306 0.688C85.8188 0.695951 85.8047 0.699493 85.7906 0.697997L85.7606 0.727989C85.7322 0.7455 85.7055 0.765579 85.6807 0.787974C85.6516 0.812055 85.6247 0.838834 85.6007 0.867954C85.5807 0.897946 85.5607 0.917941 85.5407 0.947933C85.5284 0.959326 85.5182 0.972878 85.5107 0.987923L74.2947 20.4129L63.0787 0.987923C63.0612 0.962536 63.0411 0.939078 63.0187 0.917941C62.9848 0.875508 62.948 0.835425 62.9087 0.797971C62.8711 0.767897 62.831 0.741137 62.7888 0.717992C62.7484 0.692066 62.7047 0.671878 62.6588 0.658008C62.608 0.637548 62.5536 0.627355 62.4988 0.628015C62.4688 0.628015 62.4389 0.60802 62.4089 0.60802H39.7069C39.687 0.60802 39.6769 0.618018 39.6569 0.618018C39.6369 0.618018 39.587 0.628015 39.557 0.628015L39.447 0.658008C39.4153 0.667067 39.3849 0.680528 39.357 0.697997C39.3452 0.705949 39.3312 0.709491 39.3171 0.707995C39.3057 0.720344 39.2921 0.730508 39.277 0.737987C39.2486 0.755498 39.2219 0.775576 39.1971 0.797971C39.168 0.822052 39.1411 0.848832 39.1171 0.877951C39.0971 0.907944 39.0771 0.927938 39.0571 0.957931C39.0448 0.969323 39.0346 0.982876 39.0271 0.997921L27.6812 20.6629C27.6667 20.6912 27.6566 20.7215 27.6511 20.7529C27.63 20.8012 27.6132 20.8514 27.6011 20.9028C27.5878 21.0023 27.5878 21.1032 27.6011 21.2027C27.6132 21.2541 27.63 21.3043 27.6511 21.3527C27.6566 21.384 27.6667 21.4144 27.6812 21.4427L38.8972 40.8677H16.4752C16.4552 40.8677 16.4451 40.8777 16.4251 40.8777C16.4051 40.8777 16.3552 40.8877 16.3252 40.8877L16.2152 40.9177C16.1835 40.9267 16.1532 40.9402 16.1252 40.9577C16.1152 40.9677 16.0953 40.9677 16.0853 40.9777L16.0553 41.0077C16.0268 41.0252 16.0001 41.0453 15.9753 41.0676C15.9462 41.0917 15.9194 41.1185 15.8953 41.1476C15.8753 41.1776 15.8554 41.1976 15.8354 41.2276C15.823 41.239 15.8128 41.2526 15.8053 41.2676L4.44937 60.9326C4.43493 60.9609 4.42479 60.9912 4.41935 61.0225C4.39822 61.0709 4.38144 61.1211 4.36932 61.1725C4.35598 61.272 4.35598 61.3729 4.36932 61.4724C4.38144 61.5238 4.39822 61.574 4.41935 61.6224C4.42479 61.6537 4.43493 61.684 4.44937 61.7124L15.8053 81.3773L15.8354 81.4073C15.8555 81.4396 15.8789 81.4698 15.9053 81.4973C15.9453 81.5373 15.9853 81.5673 16.0252 81.6073C16.0552 81.6273 16.0653 81.6572 16.0953 81.6672C16.107 81.6752 16.1211 81.6787 16.1352 81.6772C16.2437 81.7327 16.3632 81.7635 16.485 81.7672H38.9072L27.7012 101.192C27.6867 101.221 27.6766 101.251 27.6712 101.282C27.65 101.331 27.6332 101.381 27.6211 101.432C27.6078 101.532 27.6078 101.633 27.6211 101.732C27.6332 101.783 27.65 101.834 27.6712 101.882C27.6766 101.913 27.6867 101.944 27.7012 101.972L39.0471 121.637L39.0772 121.667C39.0973 121.699 39.1207 121.729 39.1471 121.757C39.1871 121.797 39.2271 121.827 39.267 121.867C39.297 121.887 39.3071 121.917 39.3371 121.927C39.3488 121.935 39.3629 121.938 39.377 121.937C39.4855 121.992 39.605 122.023 39.7268 122.027H62.4289C62.5507 122.023 62.6702 121.992 62.7788 121.937C62.8087 121.917 62.8287 121.897 62.8587 121.877C62.9395 121.826 63.0079 121.758 63.0587 121.677C63.0687 121.657 63.0886 121.647 63.1086 121.627L74.3247 102.202L85.5407 121.627L85.5708 121.657C85.5909 121.689 85.6143 121.719 85.6407 121.747C85.6807 121.787 85.7206 121.817 85.7606 121.857C85.7906 121.877 85.8006 121.907 85.8306 121.917C85.8423 121.925 85.8565 121.928 85.8706 121.927C85.9791 121.982 86.0986 122.013 86.2204 122.017H108.923C109.044 122.013 109.164 121.982 109.272 121.927C109.302 121.907 109.322 121.887 109.352 121.867C109.433 121.816 109.501 121.748 109.552 121.667C109.562 121.647 109.582 121.637 109.602 121.617L120.898 101.962ZM108.413 120.447H87.52L97.9663 102.352H118.859L108.413 120.447ZM61.9291 120.447H41.0364L63.3785 81.7572H84.2712L61.9291 120.447ZM17.7946 80.1776L28.2409 62.0823H72.9152L62.4688 80.1776H17.7946ZM16.4351 43.2071L26.8814 61.3025L16.4351 79.3978L5.98874 61.3025L16.4351 43.2071ZM29.2305 21.0328L39.6769 2.93742L62.019 41.6275L51.5728 59.7229L29.2305 21.0328ZM86.1705 2.94742L96.6168 21.0428L74.2847 59.7329L63.8383 41.6375L86.1705 2.94742ZM108.413 2.15762L118.859 20.253H97.9663L87.52 2.15762H108.413ZM131.664 42.4273L142.111 60.5227H97.4366L86.9902 42.4273H131.664ZM85.6207 43.2071L95.6071 60.5127H75.6242L85.6207 43.2071ZM72.9152 60.5127H52.9323L62.9187 43.2071L72.9152 60.5127ZM74.2747 62.8721L84.2612 80.1776H64.2782L74.2747 62.8721ZM75.6342 62.0923H96.5168L118.849 100.782H97.9563L75.6342 62.0923ZM98.3362 62.0923H142.101L131.654 80.1876H108.773L98.3362 62.0923ZM86.9902 40.8477L97.9763 21.8226H118.869L107.883 40.8477H86.9902ZM62.9187 40.0679L41.0364 2.15762H61.9291L73.375 21.9725L62.9187 40.0679ZM50.2032 60.5127H28.2309L17.7846 42.4173H39.7569L50.2032 60.5127ZM61.5592 81.7572L39.6769 119.668L29.2305 101.572L40.6666 81.7572H61.5592ZM85.6207 82.537L96.6068 101.562L86.1605 119.657L75.1744 100.622L85.6207 82.537Z" fill="white"/>
</g>
<defs>
<filter id="filter0_d_0_114" x="0.359375" y="0.59375" width="147.891" height="129.438" filterUnits="userSpaceOnUse" color-interpolation-filters="sRGB">
<feFlood flood-opacity="0" result="BackgroundImageFix"/>
<feColorMatrix in="SourceAlpha" type="matrix" values="0 0 0 0 0 0 0 0 0 0 0 0 0 0 0 0 0 0 127 0" result="hardAlpha"/>
<feOffset dy="4"/>
<feGaussianBlur stdDeviation="2"/>
<feComposite in2="hardAlpha" operator="out"/>
<feColorMatrix type="matrix" values="0 0 0 0 0 0 0 0 0 0 0 0 0 0 0 0 0 0 0.25 0"/>
<feBlend mode="normal" in2="BackgroundImageFix" result="effect1_dropShadow_0_114"/>
<feBlend mode="normal" in="SourceGraphic" in2="effect1_dropShadow_0_114" result="shape"/>
</filter>
<clipPath id="clip0_0_114">
<rect width="139.891" height="121.438" fill="white" transform="translate(4.35938 0.59375)"/>
</clipPath>
</defs>
</svg>
